<svg width="48" height="48" viewBox="0 0 48 48" fill="none" xmlns="http://www.w3.org/2000/svg">
<g clip-path="url(#clip0_2_235)">
<path d="M3.24403 6.48806H9.89803C11.0841 3.86663 12.9666 1.62553 15.3072 0H3.24403C1.45238 0 0 1.45238 0 3.24403C0 5.03569 1.45238 6.48806 3.24403 6.48806Z" fill="white"/>
<path d="M24.2903 0C17.1247 0 11.316 5.80884 11.316 12.9743C11.316 16.8752 13.0375 20.3739 15.7622 22.7523C17.8225 24.5508 21.0466 23.0585 21.0466 20.3235V20.2001C21.0466 19.2758 20.6369 18.4081 19.9505 17.7892C18.5509 16.5271 17.7017 14.6661 17.8136 12.6133C17.9934 9.31472 20.6775 6.651 23.9773 6.495C27.6958 6.31922 30.7772 9.29372 30.7772 12.9743C30.7772 14.902 29.9313 16.635 28.5917 17.8238C27.9139 18.4252 27.5343 19.2937 27.5343 20.1998V20.3233C27.5343 23.0577 30.7579 24.5509 32.8178 22.7527C34.7599 21.0574 36.1923 18.7928 36.855 16.2191H48.0002V0C48.0002 0 24.4128 0 24.2903 0Z" fill="white"/>
<path d="M6.4209 9.30054C4.62953 9.30054 3.17725 10.7527 3.17725 12.5442C3.17725 14.3356 4.62943 15.7879 6.4209 15.7879H8.75706C8.59009 14.8664 8.50318 13.9254 8.50318 12.9744C8.50318 11.7098 8.65356 10.4799 8.93575 9.30063H6.4209V9.30054Z" fill="white"/>
<path d="M46.5938 31.5087H28.7161C28.1094 29.4779 26.2253 27.993 24 27.993C21.7747 27.993 19.8906 29.4779 19.2839 31.5087H1.40625C0.629625 31.5087 0 32.1383 0 32.9149C0 33.6915 0.629625 34.3212 1.40625 34.3212H19.2839C19.8906 36.3519 21.7747 37.8368 24 37.8368C26.2253 37.8368 28.1094 36.3519 28.7161 34.3212H46.5938C47.3704 34.3212 48 33.6915 48 32.9149C48 32.1383 47.3704 31.5087 46.5938 31.5087Z" fill="white"/>
<path d="M46.5938 41.6719H40.2478C39.6412 39.6412 37.7571 38.1562 35.5317 38.1562C33.3064 38.1562 31.4223 39.6412 30.8156 41.6719H1.40625C0.629625 41.6719 0 42.3015 0 43.0781C0 43.8548 0.629625 44.4844 1.40625 44.4844H30.8156C31.4223 46.5151 33.3064 48 35.5317 48C37.7571 48 39.6412 46.5151 40.2478 44.4844H46.5938C47.3704 44.4844 48 43.8548 48 43.0781C48 42.3015 47.3704 41.6719 46.5938 41.6719Z" fill="white"/>
</g>
<defs>
<clipPath id="clip0_2_235">
<rect width="48" height="48" fill="white"/>
</clipPath>
</defs>
</svg>
