<svg width="576" height="894" viewBox="0 0 576 894" fill="none" xmlns="http://www.w3.org/2000/svg">
<g opacity="0.4">
<path d="M0 499.584C89.0109 480.603 176.778 435.61 260.3 366.567L275.93 353.395C281.112 348.881 286.26 344.145 291.425 339.52L299.163 332.563L306.834 325.2L322.14 310.4C332.231 299.966 342.407 289.939 352.345 278.839C362.35 268.071 372.271 256.897 382.123 245.427C401.845 222.561 421.481 199.287 441.731 178.604C461.946 157.847 482.912 140.012 504.679 128.431L512.861 124.287C515.588 122.955 518.367 122.03 521.111 120.883C526.6 118.441 532.173 117.146 537.713 115.407C548.844 112.78 560.026 110.893 571.224 110.782C593.622 109.931 616.003 114.112 638.161 120.661C660.337 127.321 682.292 136.867 704.11 147.486C725.928 158.143 747.627 170.02 769.257 182.304C812.518 206.946 855.524 233.513 898.853 257.304C942.183 281.059 985.904 301.89 1030.19 314.618C1074.44 327.383 1119.3 332.526 1163.81 324.349C1186.05 320.316 1208.18 313.027 1229.89 301.927C1251.61 290.79 1272.9 275.842 1293.45 256.971C1334.62 219.453 1373.5 170.242 1415.82 137.792L1423.77 131.872L1431.79 126.507C1434.45 124.583 1437.2 123.325 1439.91 121.808L1448.05 117.405L1452.13 115.185L1454.17 114.112L1456.24 113.298L1464.5 110.079L1472.77 106.86C1475.53 105.861 1478.33 105.38 1481.11 104.64L1489.46 102.568L1493.63 101.532L1497.83 101.014C1503.42 100.385 1509.01 99.6078 1514.6 99.1268L1531.39 99.1637C1534.19 99.0157 1536.98 99.5708 1539.78 99.7928L1548.16 100.718C1570.51 103.752 1592.72 110.412 1614.69 119.588C1636.64 129.097 1658.34 140.974 1679.84 154.332C1722.86 181.009 1764.86 214.717 1807.13 246.13C1828.27 261.892 1849.49 277.137 1870.9 291.086C1892.31 304.961 1913.97 317.171 1935.84 327.05L1944.06 330.639C1946.79 331.86 1949.53 333.045 1952.29 333.97L1968.83 339.89L1985.46 344.367C1988.22 345.218 1991.02 345.625 1993.8 346.106L2002.15 347.549C2024.44 350.916 2046.86 350.546 2069.12 345.662C2046.88 350.694 2024.44 351.212 2002.15 347.993L1993.78 346.587C1990.98 346.143 1988.21 345.736 1985.43 344.885L1968.77 340.519L1952.22 334.709C1949.46 333.821 1946.72 332.674 1943.97 331.453L1935.74 327.901C1913.84 318.133 1892.16 306.071 1870.69 292.344C1849.25 278.543 1828 263.446 1806.83 247.832C1764.5 216.53 1722.52 182.933 1679.53 156.367C1658.05 143.046 1636.36 131.243 1614.45 121.808C1592.51 112.706 1570.36 106.12 1548.06 103.16L1539.69 102.235C1536.9 101.976 1534.12 101.458 1531.32 101.606L1514.58 101.643C1509.01 102.161 1503.44 102.938 1497.86 103.567L1493.69 104.085L1489.53 105.121L1481.21 107.193C1478.45 107.97 1475.65 108.414 1472.91 109.413L1464.67 112.632L1456.44 115.851L1454.38 116.665L1452.35 117.738L1448.29 119.958L1440.18 124.361C1437.49 125.878 1434.74 127.136 1432.1 129.06L1424.11 134.388L1416.2 140.308C1374.04 172.721 1335.21 222.006 1293.96 259.709C1273.36 278.691 1251.97 293.75 1230.18 304.998C1208.4 316.209 1186.19 323.572 1163.89 327.679C1119.23 335.968 1074.25 330.972 1029.92 318.244C985.529 305.405 941.757 284.389 898.427 260.56C855.081 236.658 812.075 209.981 768.848 185.264C747.235 172.906 725.57 161.029 703.769 150.299C681.968 139.642 660.048 130.059 637.94 123.362C615.832 116.776 593.52 112.558 571.19 113.335C560.026 113.409 548.895 115.296 537.798 117.849C532.276 119.551 526.719 120.846 521.264 123.251C518.52 124.398 515.759 125.286 513.048 126.618L504.901 130.725C483.219 142.195 462.321 159.919 442.14 180.602C421.924 201.211 402.288 224.448 382.549 247.24C372.697 258.673 362.759 269.884 352.737 280.615C342.782 291.715 332.589 301.742 322.498 312.139L307.158 326.902L299.487 334.265L291.731 341.222C286.567 345.847 281.419 350.583 276.22 355.06L260.573 368.158C176.914 436.831 89.0279 481.232 0 499.584Z" fill="#9CCB3C"/>
<path d="M0 522.894C89.2837 507.983 177.493 465.395 261.374 397.684C271.788 388.804 282.305 380.553 292.584 370.97C297.731 366.271 302.947 361.793 308.061 356.909L323.402 342.109C328.532 337.299 333.544 331.86 338.606 326.717C343.635 321.426 348.748 316.505 353.708 310.881C363.68 299.891 373.686 289.05 383.521 277.432C403.225 254.455 422.725 230.515 442.685 208.463C462.611 186.337 483.1 166.171 504.424 151.038C515.06 143.305 525.935 137.274 536.912 132.316C542.401 129.911 547.923 127.654 553.48 126.026C559.02 124.139 564.594 122.77 570.168 121.401C592.48 116.628 614.963 115.962 637.326 118.959C648.508 120.439 659.673 122.659 670.804 125.582C681.917 128.542 692.997 132.205 704.042 136.312C726.116 144.563 748.019 154.997 769.701 167.133C780.542 173.238 791.348 179.677 802.087 186.596C812.826 193.478 823.479 200.952 834.166 208.204C855.541 222.708 876.848 237.545 898.24 251.828C919.632 266.073 941.109 279.689 962.757 291.936C973.58 297.967 984.421 304.073 995.364 308.994L1011.76 316.616L1019.96 320.427L1028.21 323.72C1072.15 341.221 1117.02 349.509 1161.66 344.255C1183.97 341.628 1206.2 335.56 1228.05 325.422C1249.9 315.284 1271.35 301.149 1292.07 283.019C1333.6 246.981 1372.71 198.732 1414.78 164.691C1435.77 147.597 1457.62 135.239 1479.83 128.505C1490.92 125.101 1502.12 122.992 1513.32 122.289C1524.52 121.475 1535.75 121.956 1546.94 123.547C1591.75 129.874 1635.62 152.37 1678.63 178.974C1700.14 192.442 1721.46 207.353 1742.68 222.782L1806.33 269.181C1848.79 299.743 1891.73 327.938 1935.66 346.623C1979.51 365.271 2024.6 373.782 2069.19 363.717C2024.61 374.078 1979.48 365.901 1935.57 347.548C1891.58 329.159 1848.57 301.224 1806.06 270.92L1742.38 224.669C1721.16 209.277 1699.85 194.44 1678.34 181.046C1635.35 154.59 1591.53 132.205 1546.85 126.026C1535.7 124.472 1524.52 124.028 1513.36 124.879C1502.19 125.582 1491.04 127.728 1480 131.132C1457.87 137.903 1436.14 150.224 1415.23 167.318C1373.31 201.359 1334.23 249.682 1292.6 285.942C1271.82 304.184 1250.28 318.466 1228.36 328.678C1206.44 338.927 1184.11 345.032 1161.73 347.733C1116.93 353.098 1071.95 344.921 1027.89 327.42L1019.62 324.09L1011.4 320.242L994.972 312.546C983.995 307.588 973.154 301.445 962.313 295.377C940.649 283.056 919.155 269.366 897.763 255.084C876.371 240.765 855.064 225.89 833.706 211.312C823.036 204.06 812.382 196.512 801.661 189.667C790.939 182.748 780.167 176.273 769.343 170.13C747.695 157.957 725.843 147.486 703.803 139.198C692.792 135.054 681.73 131.391 670.633 128.394C659.536 125.471 648.406 123.214 637.241 121.734C614.929 118.7 592.514 119.292 570.27 124.028C564.713 125.36 559.173 126.729 553.651 128.579C548.111 130.207 542.622 132.427 537.151 134.832C526.208 139.716 515.367 145.71 504.765 153.406C483.509 168.428 463.072 188.483 443.163 210.535C423.219 232.513 403.72 256.379 383.981 279.356C374.146 290.937 364.123 301.816 354.135 312.768C349.174 318.392 344.044 323.313 338.998 328.604C333.919 333.747 328.924 339.186 323.777 343.959L308.419 358.722C303.305 363.644 298.089 368.084 292.925 372.783C282.629 382.329 272.095 390.617 261.663 399.423C177.613 466.579 89.3007 508.575 0 522.894Z" fill="#9CCB3C"/>
<path d="M0 546.167C89.5564 535.067 178.295 495.143 262.533 428.468C283.55 411.559 304.43 393.799 324.834 373.597C335.129 363.976 345.152 353.061 355.277 342.664C360.305 337.299 365.265 331.638 370.26 326.125C375.254 320.612 380.248 315.062 385.157 309.252C404.896 286.201 424.327 261.892 444.066 238.729C463.787 215.567 483.85 193.478 504.73 175.495C525.56 157.254 547.293 143.934 569.367 135.017C591.44 126.026 613.855 121.142 636.304 119.921C658.752 118.81 681.235 121.179 703.548 126.766C725.86 132.168 748.019 140.752 769.837 152.148C791.655 163.655 813.201 177.789 834.2 194.921L865.854 219.711L897.439 244.834C918.507 261.485 939.643 277.691 960.984 292.528C971.654 299.891 982.359 307.106 993.166 313.545L1009.41 322.943C1014.83 326.014 1020.22 329.418 1025.69 332.008C1069.22 354.578 1114.05 366.418 1158.83 363.976C1181.21 362.755 1203.56 357.908 1225.55 348.991C1247.55 340.037 1269.16 326.791 1290.08 309.474C1331.99 274.99 1371.4 227.666 1413.23 192.035C1434.13 174.2 1455.83 160.51 1478.04 152.777C1500.23 144.896 1522.83 143.157 1545.23 146.45C1567.65 149.669 1589.89 157.291 1611.83 167.503C1633.76 177.752 1655.48 190.074 1677.06 203.468C1698.62 216.936 1720 231.736 1741.3 246.943L1805.28 292.121C1847.97 321.685 1891.2 348.436 1935.31 366.048C1979.36 383.624 2024.51 391.394 2069.21 381.7C2024.53 391.727 1979.34 384.253 1935.25 366.973C1891.08 349.62 1847.8 323.165 1805.04 293.897L1741.03 248.868C1719.72 233.734 1698.35 218.971 1676.8 205.54C1655.24 192.22 1633.54 179.972 1611.62 169.76C1589.72 159.622 1567.53 152.074 1545.18 148.929C1522.85 145.71 1500.33 147.486 1478.24 155.367C1456.13 163.1 1434.54 176.753 1413.71 194.625C1372 230.256 1332.62 277.691 1290.59 312.36C1269.61 329.788 1247.89 343.145 1225.82 352.173C1203.73 361.201 1181.31 366.085 1158.86 367.38C1113.93 369.934 1068.95 358.167 1025.28 335.634C1019.79 333.007 1014.4 329.603 1008.97 326.532L992.705 317.097C981.882 310.622 971.16 303.369 960.472 295.969C939.098 281.058 917.944 264.815 896.876 248.09L865.308 222.893L833.689 198.029C812.706 180.86 791.263 166.726 769.496 155.182C747.729 143.749 725.638 135.128 703.377 129.689C681.133 124.065 658.718 121.66 636.321 122.696C613.94 123.843 591.577 128.69 569.571 137.607C547.565 146.45 525.901 159.659 505.122 177.789C484.293 195.698 464.265 217.676 444.543 240.764C424.805 263.853 405.373 288.125 385.6 311.14C380.674 316.949 375.68 322.499 370.669 328.012C365.657 333.488 360.697 339.186 355.652 344.514C345.51 354.911 335.47 365.789 325.158 375.41C304.72 395.575 283.822 413.335 262.771 430.17C178.414 496.328 89.5734 535.696 0 546.167Z" fill="#9CCB3C"/>
<path d="M0 569.441L16.8408 567.628L25.2612 566.703L33.6646 565.26L50.4713 562.337L67.2269 558.378L75.6133 556.38L83.9655 553.864L100.67 548.795L117.306 542.727L125.624 539.656L133.891 536.104L150.425 528.962L166.857 520.859L175.073 516.752L183.238 512.201L199.55 503.025L215.743 492.887L223.84 487.781L231.868 482.231L247.925 471.094L263.828 458.994L271.771 452.926L279.646 446.414L295.396 433.353L310.976 419.367L318.765 412.337L326.453 404.862L341.828 389.914L357.015 374.041L364.6 366.086L372.083 357.687L387.049 340.851C426.663 294.823 464.725 242.282 505.651 201.248C515.878 191.073 526.259 181.49 536.844 173.202C547.429 164.877 558.168 157.44 569.043 151.15C590.775 138.31 612.951 129.208 635.332 123.658C657.713 118.404 680.298 116.665 702.798 119.07C725.28 121.401 747.729 127.247 769.752 137.496C791.791 147.597 813.422 161.88 834.354 179.899C855.337 197.622 875.927 217.27 896.62 236.325C937.972 274.509 979.631 311.621 1022.74 339.26C1065.76 366.974 1110.52 382.625 1155.42 383.291C1200.27 383.957 1245.33 369.268 1287.61 336.189C1329.95 303.407 1369.7 257.008 1411.32 219.786C1432.12 201.1 1453.7 186.115 1475.87 177.309C1486.95 172.869 1498.17 169.983 1509.42 168.688C1520.67 167.43 1531.95 167.763 1543.2 169.354C1565.69 172.536 1587.96 180.639 1609.92 191.258C1631.89 201.914 1653.62 214.494 1675.25 227.852C1696.87 241.357 1718.33 256.083 1739.72 271.031C1761.11 286.054 1782.6 300.299 1804.05 315.025L1812.09 320.501L1820.17 325.681C1825.56 329.122 1830.96 332.526 1836.38 335.782C1841.79 339.149 1847.21 342.369 1852.64 345.477C1858.06 348.696 1863.5 351.767 1868.96 354.727C1890.74 366.715 1912.71 377.26 1934.87 385.511C1979.14 402.05 2024.38 409.118 2069.21 399.756C2024.41 409.451 1979.12 402.68 1934.8 386.436C1912.63 378.333 1890.62 367.936 1868.8 356.096C1863.35 353.173 1857.89 350.139 1852.47 346.957C1847.04 343.886 1841.6 340.666 1836.2 337.373C1830.77 334.154 1825.37 330.787 1819.97 327.383L1811.87 322.277L1803.83 316.838L1771.63 295.045C1760.89 287.756 1750.15 280.578 1739.46 273.029C1718.05 258.118 1696.61 243.466 1675 229.998C1653.38 216.678 1631.63 204.134 1609.7 193.589C1587.78 183.044 1565.55 175.052 1543.13 171.907C1531.94 170.353 1520.7 170.02 1509.5 171.315C1498.3 172.647 1487.14 175.533 1476.11 180.01C1454.04 188.853 1432.56 203.838 1411.82 222.487C1370.29 259.709 1330.56 306.219 1288.08 339.223C1245.68 372.524 1200.42 387.398 1155.4 386.806C1110.34 386.251 1065.42 370.674 1022.23 342.924C979.035 315.136 937.325 277.877 895.973 239.581C875.28 220.452 854.706 200.804 833.774 183.044C812.911 165.062 791.382 150.78 769.411 140.641C747.456 130.355 725.11 124.509 702.695 122.104C680.264 119.625 657.764 121.29 635.451 126.507C613.139 131.983 591.014 141.011 569.332 153.777C558.492 160.03 547.77 167.43 537.219 175.718C526.651 183.969 516.304 193.478 506.094 203.616C465.253 244.428 427.174 296.858 387.492 342.85L372.492 359.648L364.992 368.047L357.39 376.002L342.186 391.838L326.777 406.787L319.072 414.224L311.283 421.254L295.686 435.203L279.919 448.227L272.027 454.739L264.067 460.77L248.129 472.759L232.039 483.822L223.993 489.335L215.88 494.404L199.652 504.431L183.306 513.496L175.124 518.01L166.976 521.932L150.511 529.962L133.96 536.992L125.676 540.47L117.357 543.467L100.721 549.424L84.0166 554.382L75.6644 556.824L67.2781 558.785L50.5054 562.633L33.6816 565.445L25.2783 566.851L16.8579 567.702L0 569.441Z" fill="#9CCB3C"/>
<path d="M0 592.714C90.2382 589.051 180.17 553.974 265.311 489.297C276.016 481.564 286.516 472.61 297.067 463.989C299.709 461.88 302.334 459.586 304.925 457.218L312.748 450.225L320.572 443.232L324.476 439.716L328.328 435.979C338.623 425.952 348.953 416.184 359.044 405.232C364.106 399.793 369.237 394.761 374.214 389.026L389.214 372.042C429.083 326.273 467.026 272.881 507.202 227.962C547.242 182.488 590.332 149.965 634.599 130.244C678.866 111.003 724.803 107.081 769.445 123.546C791.74 131.798 813.627 145.303 834.541 163.988C855.439 182.747 875.672 204.541 895.939 226.075C936.456 269.07 977.058 312.138 1019.55 345.032C1040.69 361.978 1062.42 375.298 1084.51 384.845C1106.6 394.428 1129.02 400.348 1151.52 402.272C1196.5 406.231 1241.89 393.873 1284.66 363.051C1306.05 347.696 1326.81 328.456 1347.39 308.401C1367.96 288.31 1388.36 267.368 1409.09 247.942C1429.8 228.48 1451.24 212.015 1473.4 202.025C1484.48 197.067 1495.7 193.515 1506.98 191.924C1518.27 190.369 1529.6 190.48 1540.88 192.035C1563.47 195.032 1585.78 203.653 1607.79 214.605C1629.79 225.631 1651.56 238.581 1673.28 251.901C1694.97 265.407 1716.5 280.059 1738.03 294.822C1748.77 302.333 1759.58 309.326 1770.38 316.394L1802.77 337.669C1808.16 341.258 1813.56 344.847 1819.01 347.992C1824.45 351.285 1829.89 354.541 1835.34 357.649C1840.78 360.831 1846.23 363.939 1851.71 366.899L1859.91 371.413L1868.14 375.706C1890.08 387.102 1912.18 397.055 1934.44 404.788C1978.95 420.291 2024.34 426.692 2069.31 417.627C2024.34 426.988 1978.93 420.883 1934.38 405.676C1912.08 398.091 1889.96 388.286 1867.98 377.037L1859.75 372.819L1851.54 368.342C1846.06 365.419 1840.59 362.348 1835.14 359.203C1829.68 356.132 1824.23 352.913 1818.79 349.657C1813.34 346.549 1807.93 342.997 1802.53 339.445L1770.11 318.281C1759.3 311.213 1748.48 304.257 1737.74 296.783C1716.21 282.057 1694.68 267.479 1673 254.01C1651.3 240.727 1629.52 227.851 1607.55 216.899C1585.58 206.021 1563.32 197.474 1540.82 194.514C1529.58 192.997 1518.3 192.923 1507.07 194.477C1495.83 196.068 1484.67 199.62 1473.66 204.615C1451.6 214.605 1430.28 231.07 1409.62 250.532C1388.92 269.995 1368.54 290.974 1347.96 311.139C1327.39 331.268 1306.6 350.582 1285.14 366.048C1242.22 397.129 1196.62 409.598 1151.47 405.75C1128.88 403.863 1106.36 397.98 1084.19 388.397C1062.01 378.851 1040.18 365.567 1018.97 348.584C976.393 315.505 935.74 272.289 895.257 229.183C875.007 207.612 854.808 185.781 833.979 167.059C813.183 148.411 791.399 134.906 769.206 126.655C724.786 110.152 679.002 113.926 634.872 133.019C590.724 152.592 547.719 184.93 507.747 230.219C467.623 274.953 429.646 328.271 389.708 374.003C349.788 419.773 308.334 459.401 265.601 491.036C180.272 555.232 90.2382 589.68 0 592.714Z" fill="#9CCB3C"/>
<path d="M0 615.987L16.9942 615.469L25.4828 615.21L33.9714 614.396L50.9486 612.657C56.6077 611.843 62.2497 610.77 67.8917 609.808L76.3633 608.365C79.1928 607.921 81.9882 607.07 84.8178 606.441L101.71 602.334C107.335 600.891 112.926 598.893 118.533 597.228C124.141 595.415 129.749 593.898 135.323 591.567C179.982 575.065 224.113 551.421 266.948 519.453C272.3 515.42 277.669 511.571 283.004 507.427L298.908 494.44L306.851 487.928L314.709 480.898L330.407 466.838L345.902 451.742L353.657 444.193C356.231 441.64 358.754 438.865 361.311 436.201L376.583 420.069C381.646 414.593 386.623 408.71 391.651 403.012C431.81 357.464 469.753 303.369 509.316 255.305C548.759 206.724 590.673 167.392 634.19 139.494C655.957 125.544 678.286 115.665 700.854 110.374C712.155 107.821 723.508 106.637 734.86 106.563C746.212 106.415 757.581 107.858 768.865 110.744C791.416 116.664 813.678 128.615 834.695 147.412C855.677 166.43 875.552 190.369 895.359 214.235C915.166 238.174 934.904 262.299 954.898 285.35C964.904 296.894 974.978 308.105 985.137 318.872C995.262 329.862 1005.69 339.408 1016.02 349.435C1057.36 389.285 1101.85 413.668 1146.95 420.957C1192.03 428.394 1237.78 418.663 1281.1 390.136C1302.74 375.853 1323.78 357.427 1344.5 337.669C1365.23 317.874 1385.74 296.931 1406.41 276.729C1427.07 256.527 1448.33 238.507 1470.47 227.222C1481.52 221.487 1492.77 217.528 1504.08 215.456C1515.42 213.569 1526.79 213.31 1538.12 214.753C1560.81 217.528 1583.21 226.667 1605.26 237.878C1616.29 243.539 1627.27 249.755 1638.21 256.193C1649.14 262.669 1660.08 269.107 1670.97 275.915C1714.58 302.925 1757.51 334.561 1801.18 360.794C1844.87 386.695 1889.02 409.672 1933.85 424.139C1978.63 438.606 2024.19 444.342 2069.36 435.609C2024.19 444.638 1978.61 439.235 1933.78 425.064C1888.9 410.893 1844.7 388.212 1800.95 362.57C1757.22 336.448 1714.27 304.886 1670.68 278.024C1648.87 264.778 1627.05 251.457 1605.01 240.172C1582.97 229.035 1560.64 219.97 1538.04 217.269C1526.75 215.863 1515.42 216.122 1504.17 218.046C1492.92 220.155 1481.74 224.114 1470.74 229.849C1448.72 241.134 1427.55 259.117 1406.94 279.356C1386.3 299.595 1365.79 320.574 1345.07 340.481C1324.32 360.313 1303.25 378.85 1281.54 393.244C1238.07 421.993 1192.12 431.872 1146.86 424.509C1101.57 417.294 1056.86 392.911 1015.38 352.987C1005.03 342.923 994.58 333.303 984.438 322.277C974.245 311.435 964.171 300.187 954.166 288.606C934.154 265.481 914.416 241.282 894.626 217.306C874.853 193.404 855.013 169.464 834.166 150.52C813.286 131.797 791.161 119.883 768.729 113.926C757.513 111.04 746.212 109.56 734.911 109.708C723.61 109.745 712.309 110.892 701.059 113.445C678.576 118.625 656.315 128.43 634.616 142.306C612.883 155.996 591.611 173.127 570.764 192.182C549.918 211.349 529.702 233.623 509.946 257.6C470.401 305.515 432.407 359.536 392.18 405.047C387.151 410.708 382.174 416.591 377.095 422.067L361.805 438.199C359.248 440.863 356.725 443.638 354.135 446.191L346.379 453.74L330.851 468.799L315.118 482.822L307.26 489.852L299.3 496.364L283.379 509.352C278.044 513.459 272.658 517.344 267.288 521.303C224.351 553.012 180.17 576.36 135.46 592.566C129.886 594.86 124.261 596.34 118.653 598.116C113.045 599.781 107.437 601.705 101.812 603.111L84.8348 607.033C82.0223 607.662 79.2098 608.476 76.3803 608.92L67.9087 610.326C62.2667 611.214 56.6077 612.287 50.9656 613.064L33.9885 614.655L25.4999 615.432L16.9942 615.617L0 615.987Z" fill="#9CCB3C"/>
<path d="M0 639.298L17.0795 639.409L25.6192 639.483C28.4658 639.409 31.3123 639.15 34.1589 638.965L51.2213 637.818C56.9145 637.263 62.5906 636.264 68.2667 635.524C79.636 634.266 90.9541 631.343 102.289 629.011C105.119 628.493 107.948 627.679 110.761 626.828L119.232 624.386L127.704 621.944L131.931 620.723L136.141 619.206C147.357 615.062 158.624 611.399 169.755 606.182C175.329 603.703 180.937 601.446 186.476 598.745L203.096 590.272C205.857 588.829 208.635 587.497 211.397 585.98L219.647 581.17L236.129 571.513L252.459 560.745L260.624 555.343C263.351 553.53 266.027 551.421 268.72 549.46C311.896 518.232 354.066 480.084 394.293 433.796C434.725 388.286 472.821 333.784 511.924 283.056C531.458 257.6 551.315 233.216 571.753 211.275C581.946 200.212 592.309 189.851 602.69 179.676C613.071 169.464 623.537 159.659 634.139 150.557C644.741 141.455 655.463 132.908 666.372 125.692C677.281 118.477 688.36 112.409 699.576 107.821C722.008 98.4599 745.053 96.5729 767.792 100.421C779.178 102.16 790.513 105.416 801.729 110.189C812.911 115.184 823.99 121.659 834.661 130.576C845.382 139.309 855.575 150.668 865.547 162.656C875.535 174.644 885.268 187.52 894.933 200.656C914.245 226.889 933.387 253.677 952.785 279.541C962.484 292.454 972.251 305.108 982.137 317.355C987.08 323.498 992.041 329.492 997.035 335.375L1012.22 352.247C1052.38 398.572 1096.61 427.58 1141.75 439.05C1186.9 450.41 1233.04 443.342 1276.9 417.405C1298.82 404.233 1320.13 386.658 1341.06 367.343C1361.98 347.918 1382.62 327.013 1403.26 306.107C1423.87 285.165 1444.95 265.592 1467.04 252.863C1478.07 246.499 1489.3 241.726 1500.67 239.173C1512.04 236.731 1523.48 236.102 1534.88 237.397C1557.71 240.061 1580.21 249.274 1602.35 260.893C1613.43 266.702 1624.42 273.177 1635.4 279.763L1668.3 299.743C1712.12 326.865 1755.35 358.204 1799.36 383.55C1843.41 408.451 1887.94 430.059 1933.06 443.527C1978.15 456.996 2023.92 462.028 2069.32 453.629C2023.92 462.324 1978.13 457.588 1933 444.415C1887.83 431.243 1843.25 409.931 1799.14 385.326C1755.06 360.128 1711.82 328.826 1668.01 301.852L1635.11 281.946C1624.13 275.397 1613.14 268.959 1602.08 263.187C1579.97 251.642 1557.52 242.503 1534.8 239.913C1523.45 238.655 1512.06 239.284 1500.78 241.726C1489.48 244.279 1478.31 249.089 1467.33 255.454C1445.34 268.182 1424.36 287.681 1403.77 308.66C1383.15 329.603 1362.5 350.582 1341.56 370.081C1320.61 389.507 1299.23 407.156 1277.24 420.439C1233.2 446.599 1186.87 453.777 1141.51 442.491C1096.19 431.095 1051.72 402.05 1011.39 355.577L996.165 338.631C991.171 332.711 986.177 326.68 981.234 320.538C971.347 308.253 961.563 295.525 951.865 282.575C932.45 256.637 913.325 229.812 894.03 203.542C884.382 190.406 874.683 177.567 864.729 165.579C854.791 153.591 844.666 142.306 834.064 133.648C823.479 124.804 812.484 118.329 801.371 113.334C790.24 108.561 778.956 105.305 767.621 103.529C744.968 99.644 722.093 101.494 699.763 110.744C688.599 115.295 677.57 121.326 666.695 128.467C655.821 135.646 645.133 144.119 634.548 153.147C623.98 162.249 613.514 171.98 603.15 182.155C592.77 192.294 582.423 202.617 572.247 213.606C551.844 235.473 532.003 259.746 512.469 285.128C473.367 335.708 435.236 390.173 394.72 435.646C354.424 481.897 312.203 520.008 268.942 551.125C266.232 553.049 263.555 555.158 260.828 556.934L252.646 562.262L236.283 572.919L219.766 582.465L211.516 587.238C208.755 588.755 205.976 590.05 203.198 591.493L186.544 599.855C180.988 602.519 175.38 604.739 169.789 607.181C158.641 612.324 147.374 615.876 136.141 619.983L131.931 621.463L127.687 622.647L119.215 625.052L110.744 627.457C107.914 628.271 105.102 629.085 102.255 629.604C90.92 631.861 79.6019 634.709 68.2156 635.893C62.5224 636.597 56.8463 637.559 51.1702 638.077L34.0907 639.113C31.2442 639.261 28.3976 639.52 25.551 639.557L17.0113 639.446L0 639.298Z" fill="#9CCB3C"/>
<path d="M0 662.572C45.7839 665.902 91.687 660.722 137.028 646.698L153.988 640.889C156.817 639.89 159.647 639.039 162.459 637.929L170.897 634.414L187.755 627.347L204.493 619.096L212.863 614.952C215.658 613.62 218.402 611.844 221.181 610.327L237.783 600.818C243.323 597.673 248.76 593.788 254.266 590.347L262.482 584.982L266.59 582.317L270.663 579.357C281.487 571.328 292.43 563.928 303.101 554.863C308.453 550.497 313.839 546.279 319.175 541.765L335.061 527.594L343.004 520.489L350.828 512.83L366.475 497.512C371.657 492.258 376.754 486.597 381.901 481.195C387.015 475.645 392.214 470.428 397.225 464.397C437.947 418.849 476.248 364.051 514.992 311.066C524.674 297.82 534.406 284.648 544.19 271.735C549.1 265.333 554.009 258.932 558.969 252.642C563.895 246.315 568.974 240.543 573.969 234.438L589.02 216.419C594.048 210.462 599.008 204.245 604.122 198.621C614.298 187.151 624.508 175.866 634.889 165.284C655.616 144.082 676.94 125.175 699.082 111.929C721.173 98.3868 744.064 90.8386 767.025 89.9136C790.002 89.1736 813.081 96.8327 834.78 113.483C845.604 121.919 856.035 132.76 865.939 145.341C875.893 157.81 885.49 171.463 894.916 185.597C913.751 213.977 932.228 243.355 950.944 271.957C960.302 286.239 969.728 300.336 979.273 314.063C988.819 327.716 998.433 341.259 1008.39 353.432C1047.11 406.417 1090.94 440.679 1136.07 456.108C1158.64 463.842 1181.57 466.876 1204.41 465.026C1227.25 463.213 1249.99 456.108 1272.2 444.453C1294.41 432.65 1316.02 416.037 1337.19 397.129C1358.35 378.185 1379.14 357.354 1399.8 335.894C1410.13 325.163 1420.48 314.433 1431.03 304.665C1441.58 294.897 1452.33 286.128 1463.33 278.913C1474.32 271.698 1485.57 266.295 1496.96 263.039C1508.34 259.746 1519.88 259.08 1531.34 260.079C1554.3 262.188 1576.95 271.587 1599.18 283.612C1610.29 289.643 1621.34 296.266 1632.37 303.037C1643.38 309.882 1654.42 316.394 1665.4 323.572L1731.3 365.827C1753.25 379.998 1775.22 393.947 1797.43 406.158C1841.87 430.06 1886.8 450.299 1932.25 462.769C1977.65 475.201 2023.66 479.604 2069.34 471.501C2023.68 479.9 1977.64 475.83 1932.19 463.657C1886.7 451.483 1841.73 431.54 1797.23 407.897C1775 395.797 1753 381.848 1731.04 367.751L1665.16 325.829C1654.2 318.688 1643.14 312.176 1632.13 305.368C1621.1 298.634 1610.07 292.011 1598.96 286.054C1576.76 274.103 1554.18 264.815 1531.32 262.743C1519.92 261.744 1508.45 262.447 1497.13 265.777C1485.81 269.033 1474.63 274.436 1463.7 281.614C1452.76 288.792 1442.06 297.561 1431.54 307.329C1421.02 317.097 1410.71 327.827 1400.38 338.558C1379.72 360.092 1358.93 380.997 1337.74 400.016C1316.55 418.997 1294.87 435.721 1272.57 447.635C1250.28 459.402 1227.44 466.58 1204.49 468.43C1181.55 470.317 1158.54 467.32 1135.85 459.624C1090.53 444.231 1046.4 409.858 1007.52 356.762C997.529 344.515 987.916 330.936 978.353 317.208C968.808 303.444 959.365 289.31 950.007 274.991C931.274 246.352 912.814 216.9 894.03 188.52C884.621 174.386 875.058 160.77 865.172 148.338C855.32 135.757 845.024 125.064 834.286 116.628C812.774 100.089 789.882 92.4297 767.059 93.0957C744.235 93.9837 721.445 101.421 699.457 114.852C677.4 127.987 656.144 146.784 635.451 167.874C625.088 178.419 614.878 189.667 604.719 201.1C599.605 206.688 594.645 212.904 589.616 218.824L574.582 236.769C569.588 242.837 564.509 248.572 559.582 254.899C554.639 261.152 549.73 267.516 544.821 273.918C535.037 286.794 525.304 299.929 515.622 313.138C476.861 366.012 438.492 420.773 397.703 466.321C392.691 472.352 387.475 477.569 382.345 483.119C377.197 488.558 372.083 494.182 366.885 499.436L351.203 514.754L343.362 522.376L335.419 529.444L319.515 543.615C314.18 548.092 308.777 552.31 303.425 556.676C292.737 565.667 281.794 573.141 270.936 581.059L266.862 583.982L262.737 586.646L254.504 591.938C248.999 595.379 243.544 599.227 238.005 602.335L221.368 611.733C218.59 613.25 215.846 614.989 213.033 616.321L204.647 620.428L187.874 628.568L170.982 635.524L162.545 639.002C159.732 640.112 156.886 640.926 154.056 641.925L137.079 647.624C91.7041 661.314 45.7839 666.198 0 662.572Z" fill="#9CCB3C"/>
<path d="M0 685.845C46.0566 690.914 92.2836 686.918 137.999 674.116C183.681 660.685 228.834 638.966 272.794 608.995C316.686 578.581 359.47 540.47 400.43 494.7C441.424 448.894 480.066 394.022 518.554 339.002C556.94 283.575 596.042 230.331 636.218 181.083C646.275 168.836 656.485 157.107 666.866 146.192C677.247 135.24 687.832 125.138 698.673 116.48C709.513 107.822 720.542 100.237 731.809 94.5388C743.076 88.8778 754.496 84.8817 766.019 82.4397C789.03 78.0366 812.553 82.0697 834.695 97.055C845.774 104.381 856.428 114.741 866.467 127.247C876.456 139.902 886.001 154.147 895.24 169.169C931.973 229.813 966.523 296.414 1004.57 352.877L1018.96 373.56L1026.15 383.921L1033.56 393.467L1037.28 398.24L1039.14 400.608L1041.05 402.791L1048.68 411.449L1052.5 415.778L1056.42 419.7L1064.24 427.507C1085.26 447.784 1107.39 462.473 1129.9 472.426C1174.97 492.184 1221.93 492.221 1266.95 471.538C1289.47 461.178 1311.4 445.563 1332.85 427.359C1354.27 409.044 1375.25 388.25 1395.98 366.419C1416.66 344.404 1437.32 321.648 1459.27 305.775C1470.21 297.783 1481.45 291.382 1492.87 287.497C1498.58 285.536 1504.34 284.093 1510.1 283.501L1514.43 282.909L1518.76 282.798C1521.66 282.687 1524.54 282.576 1527.42 282.909C1550.57 284.241 1573.39 293.898 1595.72 306.256C1606.9 312.435 1618 319.28 1629.08 326.2L1662.3 347.031L1728.67 389.212C1750.78 403.457 1772.96 417.073 1795.35 428.876C1840.2 451.854 1885.56 470.687 1931.36 482.194C1977.14 493.627 2023.42 497.364 2069.41 489.594C2023.44 497.66 1977.13 494.256 1931.31 483.119C1885.47 471.908 1840.06 453.408 1795.15 430.689C1772.72 418.997 1750.53 405.381 1728.42 391.173L1662.03 349.14L1628.79 328.383C1617.71 321.464 1606.63 314.655 1595.46 308.513C1573.17 296.229 1550.41 286.646 1527.4 285.388C1524.54 285.055 1521.66 285.166 1518.78 285.277L1514.46 285.425L1510.17 286.017C1504.42 286.609 1498.71 288.052 1493.04 290.013C1481.69 293.898 1470.54 300.262 1459.65 308.254C1437.81 324.128 1417.2 346.809 1396.53 368.898C1375.78 390.803 1354.8 411.634 1333.32 430.06C1311.85 448.339 1289.84 464.064 1267.22 474.535C1222.02 495.403 1174.85 495.477 1129.56 475.719C1106.93 465.766 1084.68 451.077 1063.55 430.726L1055.67 422.882L1051.73 418.96L1047.9 414.594L1040.21 405.899L1038.28 403.716L1036.41 401.311L1032.68 396.538L1025.21 386.954L1017.98 376.594L1003.55 355.874C965.433 299.152 930.882 232.403 894.268 171.833C885.064 156.848 875.587 142.677 865.666 130.059C855.729 117.664 845.212 107.378 834.234 100.089C812.314 85.1777 788.996 81.1447 766.138 85.4738C754.701 87.8788 743.332 91.8378 732.133 97.4249C720.934 103.086 709.94 110.597 699.15 119.181C688.343 127.765 677.792 137.793 667.446 148.708C657.082 159.586 646.906 171.278 636.849 183.451C596.69 232.551 557.605 285.684 519.185 341C480.679 395.946 441.969 450.781 400.89 496.55C359.845 542.283 317.01 580.394 273.05 610.66C228.987 640.335 183.766 661.795 138.05 674.93C92.3007 687.547 46.0395 691.247 0 685.845Z" fill="#9CCB3C"/>
<path d="M0 709.118C46.3464 715.889 92.9314 713.114 139.056 701.422C185.13 689.101 230.675 667.826 275.078 638.41C319.413 608.625 362.538 570.329 403.873 524.559C445.259 478.79 484.208 423.548 522.56 366.863C541.753 338.52 560.81 309.734 580.088 281.576C599.452 253.715 618.696 225.558 638.23 198.288C657.73 170.945 677.707 144.822 698.758 123.288C709.309 112.632 720.116 103.197 731.178 95.2784C742.241 87.3603 753.61 81.5512 765.081 77.2592C788.007 68.601 811.837 68.823 834.507 81.2922C845.842 87.3603 856.803 96.6844 867.047 108.784C869.638 111.707 872.092 115.185 874.598 118.367C877.052 121.771 879.49 125.212 881.876 128.838C886.683 135.979 891.336 143.601 895.905 151.408C905.024 167.097 913.734 183.821 922.393 200.619L948.234 251.347C965.433 285.165 982.717 318.836 1000.85 350.212C1005.37 358.094 1010.11 365.383 1014.71 373.005C1019.38 380.442 1023.93 388.249 1028.69 395.427C1038.25 409.524 1048.09 422.882 1058.42 434.241C1078.95 457.403 1100.77 475.164 1123.22 487.633C1168.14 512.312 1215.47 515.716 1261.08 498.141C1283.93 489.557 1306.24 475.126 1327.97 457.625C1349.7 440.05 1370.92 419.515 1391.77 397.425C1412.55 375.114 1433.02 350.879 1454.87 333.229C1465.77 324.386 1476.95 317.023 1488.4 312.287C1499.84 307.514 1511.52 305.479 1523.16 305.664C1546.49 306.293 1569.5 315.987 1591.97 328.567C1614.47 341.221 1636.59 356.688 1658.92 370.304L1725.83 412.485C1748.09 426.804 1770.49 440.161 1793.09 451.594C1838.36 473.72 1884.2 491.111 1930.37 501.619C1976.53 512.053 2023.13 515.087 2069.46 507.613C2023.15 515.383 1976.53 512.645 1930.34 502.544C1907.22 497.475 1884.21 490.593 1861.3 482.305C1838.39 473.906 1815.57 464.544 1792.92 453.37C1770.28 442.048 1747.87 428.691 1725.6 414.446L1658.68 372.413C1636.32 358.834 1614.2 343.404 1591.73 330.824C1569.3 318.318 1546.36 308.735 1523.17 308.143C1511.6 307.995 1500.01 310.03 1488.66 314.803C1477.29 319.539 1466.17 326.865 1455.33 335.708C1433.6 353.321 1413.18 377.519 1392.39 399.941C1371.52 422.142 1350.28 442.751 1328.5 460.4C1306.72 478.013 1284.33 492.517 1261.39 501.212C1215.59 518.972 1168.03 515.679 1122.88 490.963C1100.33 478.494 1078.38 460.696 1057.7 437.423C1047.3 426.027 1037.4 412.595 1027.77 398.424C1022.98 391.246 1018.41 383.439 1013.72 375.965L1006.73 364.643C1004.4 360.869 1002.05 357.132 999.813 353.136C981.643 321.611 964.342 287.867 947.16 254.011L921.353 203.246C912.711 186.448 904.035 169.724 894.95 154.109C890.399 146.302 885.78 138.754 881.024 131.613C878.655 128.024 876.234 124.583 873.797 121.216C871.308 118.034 868.888 114.63 866.331 111.707C856.206 99.7185 845.365 90.4684 834.149 84.4373C822.968 78.1472 811.411 75.1871 799.871 74.4841C788.314 74.0401 776.74 75.8902 765.337 80.2932C753.934 84.5483 742.633 90.2833 731.638 98.1274C720.644 105.972 709.871 115.333 699.372 125.915C678.389 147.338 658.463 173.313 638.963 200.619C619.429 227.852 600.15 255.972 580.787 283.759C561.526 311.843 542.435 340.592 523.225 368.898C484.821 425.509 445.805 480.751 404.35 526.483C362.93 572.216 319.771 610.512 275.351 640.149C230.862 669.269 185.266 690.285 139.141 702.31C92.9484 713.743 46.3293 716.222 0 709.118Z" fill="#9CCB3C"/>
<path d="M0 732.428C46.6532 740.865 93.6472 739.347 140.164 728.617C186.681 717.443 232.652 696.649 277.482 667.64L281.692 665.013L285.868 662.053L294.203 656.133C299.743 652.1 305.351 648.437 310.856 644.145L327.322 631.01L335.555 624.424L343.669 617.209L359.896 602.778C365.282 597.894 370.566 592.381 375.901 587.238L383.896 579.357L387.884 575.435L391.805 571.217L407.504 554.234C449.316 508.575 488.605 452.889 526.923 394.687C546.082 365.567 565.02 335.708 583.991 305.923L640.872 216.566C650.349 201.655 659.877 186.892 669.576 172.609C679.292 158.438 689.212 144.822 699.388 132.205C709.548 119.477 720.099 108.302 730.905 98.3863C733.633 96.0552 736.292 93.3171 739.07 91.2821L747.354 84.807C752.962 81.0699 758.536 77.0739 764.263 74.2249C786.951 61.4597 810.95 57.4636 834.149 66.6028C845.706 71.2648 857.041 79.0349 867.575 90.5051C878.194 101.679 887.808 116.739 896.893 132.797C905.995 148.929 914.484 166.504 922.819 184.376C931.154 202.247 939.353 220.377 947.552 238.507C963.933 274.768 980.279 311.14 997.495 345.476C1001.77 354.097 1006.14 362.57 1010.65 370.6L1024.07 395.057L1027.43 401.162C1028.53 403.234 1029.74 404.973 1030.9 406.897L1037.93 418.219C1040.23 422.141 1042.73 425.397 1045.15 428.912L1052.48 439.31C1072.39 465.765 1093.92 486.263 1116.2 501.286C1138.49 516.271 1161.57 525.669 1184.86 529.628C1208.14 533.587 1231.61 531.7 1254.73 524.522C1277.87 517.677 1300.56 504.542 1322.64 487.965C1344.73 471.389 1366.19 451.039 1387.22 428.912C1408.19 406.527 1428.49 380.923 1450.19 361.423C1461.01 351.655 1472.16 343.367 1483.59 337.632C1489.32 334.783 1495.12 332.6 1500.95 331.083C1506.79 329.788 1512.64 328.752 1518.52 328.752C1542.04 328.16 1565.31 337.706 1587.93 350.582C1610.58 363.569 1632.81 379.628 1655.31 393.429L1722.78 435.61C1734.03 442.566 1745.24 449.929 1756.56 456.219C1767.88 462.657 1779.23 468.725 1790.65 474.238C1802.05 479.862 1813.56 484.487 1825.05 489.224L1842.33 495.884L1859.65 502.026C1882.76 509.87 1905.98 516.308 1929.28 521.007C1975.86 530.405 2022.81 532.773 2069.51 525.595C2022.82 533.069 1975.86 530.997 1929.25 521.932C1905.93 517.381 1882.69 511.091 1859.55 503.395L1842.21 497.364L1824.91 490.815C1813.41 486.152 1801.88 481.601 1790.46 476.051C1779.03 470.575 1767.66 464.544 1756.34 458.106C1744.99 451.816 1733.79 444.49 1722.54 437.571L1655.04 395.538C1632.5 381.737 1610.28 365.752 1587.66 352.839C1565.07 340.074 1541.89 330.639 1518.52 331.268C1512.69 331.268 1506.86 332.304 1501.07 333.599C1495.27 335.079 1489.53 337.262 1483.85 340.111C1472.48 345.846 1461.42 354.134 1450.65 363.865C1429.05 383.328 1408.78 408.932 1387.78 431.429C1366.71 453.666 1345.22 474.09 1323.08 490.777C1300.95 507.465 1278.18 520.674 1254.93 527.593C1231.72 534.845 1208.14 536.769 1184.76 532.847C1161.37 528.925 1138.17 519.527 1115.76 504.505C1093.36 489.446 1071.69 468.873 1051.65 442.307L1044.27 431.873C1041.83 428.358 1039.31 425.065 1036.99 421.142L1029.92 409.746C1028.76 407.822 1027.53 406.046 1026.4 403.974L1023.03 397.832L1009.55 373.338C1005.01 365.272 1000.63 356.835 996.336 348.177C979.086 313.73 962.756 277.284 946.393 240.987C938.211 222.819 930.012 204.726 921.711 186.855C913.41 168.983 904.956 151.445 895.922 135.424C886.888 119.44 877.393 104.491 866.927 93.4652C856.53 82.1431 845.331 74.4468 833.911 69.7848C810.967 60.6826 787.206 64.5307 764.655 77.1849C758.962 79.9969 753.422 83.9561 747.848 87.6561L739.616 94.0942C736.854 96.1292 734.195 98.8302 731.485 101.124C720.729 110.966 710.212 122.067 700.104 134.721C689.962 147.264 680.076 160.806 670.36 174.94C660.678 189.186 651.15 203.912 641.673 218.749L584.758 307.958C565.787 337.669 546.832 367.492 527.639 396.611C489.287 454.776 449.913 510.425 408.032 556.047L392.299 573.03L388.362 577.248L384.356 581.17L376.362 589.014C371.009 594.157 365.725 599.67 360.322 604.554L344.061 618.985L335.93 626.2L327.68 632.749L311.197 645.884C305.692 650.139 300.084 653.839 294.527 657.835L286.175 663.718L281.999 666.678L277.771 669.305C232.857 698.055 186.817 718.59 140.249 729.431C93.6472 739.939 46.6361 741.124 0 732.428Z" fill="#9CCB3C"/>
<path d="M0 755.702C46.977 765.729 94.3972 765.507 141.357 755.702C144.306 755.295 147.221 754.37 150.153 753.63L158.931 751.299L167.709 748.968C170.641 748.191 173.573 747.451 176.471 746.341L193.942 740.162C196.857 739.089 199.772 738.201 202.669 737.017L211.346 733.206L228.681 725.584C234.442 722.809 240.152 719.627 245.879 716.629L254.47 712.115L258.766 709.821L263.027 707.194L280.055 696.723C285.749 693.43 291.339 689.323 296.964 685.401L313.788 673.561L330.407 660.389C335.93 655.949 341.521 651.767 346.941 646.735C357.833 636.967 368.845 627.68 379.498 616.691L395.589 600.744L411.407 583.538C432.441 560.376 453.032 535.327 472.992 508.02C492.986 480.862 512.486 451.964 531.662 422.142C569.997 362.423 607.122 299.078 644.161 235.585C653.383 219.601 662.588 203.579 671.963 187.965C681.32 172.314 690.832 157.107 700.684 142.898C720.269 114.26 741.303 89.6915 763.769 73.2263C766.53 70.9322 769.428 69.4152 772.257 67.5282L776.519 64.8271C777.934 63.9021 779.399 63.3101 780.831 62.5331C783.712 61.09 786.593 59.573 789.49 58.241C792.405 57.131 795.32 55.836 798.252 55.059C809.979 51.3589 821.928 50.7298 833.74 53.3569C839.621 54.9109 845.518 56.872 851.246 60.239C854.143 61.6451 856.939 63.8281 859.802 65.6781L863.979 69.0452L866.058 70.7472L868.104 72.7082L872.177 76.6303L876.132 81.0704L878.109 83.2904L880.018 85.7694L883.854 90.7275C886.308 94.3905 888.814 97.8316 891.183 101.717C893.569 105.528 895.888 109.524 898.189 113.594C907.342 129.948 915.728 148.189 923.774 166.986C931.802 185.819 939.626 205.022 947.399 224.263C962.961 262.78 978.302 301.705 994.529 338.853C1010.74 375.928 1027.67 411.893 1046.67 442.011C1065.71 471.945 1086.69 496.069 1108.77 513.829C1152.97 549.165 1200.95 561.079 1247.77 550.571C1271.21 545.428 1294.29 533.846 1316.74 518.417C1339.19 502.84 1360.99 483.082 1382.24 460.918C1403.46 438.718 1423.66 411.893 1445.19 390.543C1455.95 379.887 1467.01 370.526 1478.43 363.718C1484.14 360.314 1489.94 357.613 1495.8 355.652C1501.65 353.654 1507.58 352.692 1513.48 352.063C1537.2 349.917 1560.76 359.5 1583.55 372.524C1606.41 385.622 1628.74 402.383 1651.39 416.555C1696.76 444.712 1741.85 475.571 1787.99 497.031C1799.51 502.507 1811.14 506.91 1822.76 511.313L1840.22 517.566L1857.72 523.301C1881.08 530.553 1904.53 536.4 1928.05 540.581C1975.08 548.943 2022.4 550.608 2069.51 543.763C2022.42 550.904 1975.08 549.572 1928.02 541.506C1904.48 537.473 1881.01 531.774 1857.64 524.67L1840.12 519.046L1822.64 512.904C1811 508.612 1799.38 504.246 1787.82 498.844C1741.59 477.532 1696.49 446.71 1651.12 418.664C1628.41 404.529 1606.08 387.805 1583.28 374.818C1560.52 361.868 1537.08 352.396 1513.53 354.579C1507.66 355.245 1501.78 356.207 1495.99 358.168C1490.17 360.129 1484.43 362.83 1478.75 366.234C1467.42 373.005 1456.41 382.329 1445.7 392.985C1424.26 414.261 1404.1 441.123 1382.81 463.471C1361.52 485.709 1339.66 505.578 1317.15 521.266C1294.63 536.807 1271.47 548.462 1247.91 553.716C1200.88 564.372 1152.66 552.495 1108.19 517.085C1085.99 499.288 1064.86 475.053 1045.67 444.971C1026.51 414.631 1009.51 378.629 993.251 341.481C977.006 304.221 961.666 265.222 946.137 226.668C938.365 207.39 930.558 188.187 922.564 169.391C914.552 150.631 906.234 132.501 897.166 116.258C894.899 112.225 892.598 108.229 890.228 104.455C887.893 100.607 885.422 97.2027 883.001 93.5766L879.234 88.6925L877.342 86.2505L875.382 84.0674L871.479 79.7014L867.456 75.8533L865.444 73.9293L863.382 72.2642L859.257 68.9342C856.445 67.1212 853.683 64.9381 850.82 63.5691C845.16 60.202 839.348 58.278 833.536 56.7239C821.859 54.0969 810.047 54.689 798.422 58.315C795.507 59.0551 792.627 60.35 789.729 61.46C786.848 62.792 784.002 64.3091 781.138 65.7152C779.706 66.4922 778.257 67.0471 776.86 67.9721L772.632 70.6732C769.82 72.5603 766.956 74.0403 764.212 76.3343C741.9 92.6146 720.968 116.998 701.434 145.525C691.616 159.66 682.104 174.83 672.764 190.444C663.406 206.021 654.184 222.006 644.963 237.99C607.889 301.409 570.73 364.717 532.327 424.399C513.117 454.221 493.6 483.082 473.554 510.24C453.56 537.51 432.918 562.559 411.85 585.721L395.998 602.927L379.873 618.874C369.203 629.826 358.174 639.113 347.265 648.881C341.828 653.913 336.254 658.095 330.714 662.535L314.078 675.707L297.22 687.51C291.595 691.432 286.004 695.502 280.294 698.795L263.232 709.155L258.97 711.745L254.675 714.002L246.067 718.479C240.323 721.403 234.595 724.585 228.834 727.323L211.465 734.834L202.789 738.608C199.891 739.792 196.959 740.68 194.044 741.716L176.556 747.784C173.641 748.894 170.709 749.597 167.778 750.374L158.982 752.668L150.187 754.962C147.255 755.702 144.323 756.59 141.391 756.997C94.3972 766.099 46.977 766.025 0 755.702Z" fill="#9CCB3C"/>
<path d="M0 778.976C47.335 790.631 95.1813 791.63 142.636 782.75L147.084 782.01L151.516 780.9L160.38 778.68C166.295 777.126 172.226 775.905 178.107 774.055L195.749 768.097L204.579 765.1C207.51 763.953 210.425 762.621 213.34 761.4L230.862 753.926C233.794 752.779 236.675 751.225 239.573 749.708L248.266 745.231L256.959 740.754C259.857 739.237 262.754 737.868 265.618 736.018L282.817 725.584C328.635 697.426 373.072 659.094 415.566 612.584L423.543 603.889L427.532 599.523C428.844 598.043 430.14 596.415 431.452 594.861L447.066 576.101C457.532 563.78 467.657 550.201 477.765 536.585C497.929 509.167 517.566 479.863 536.776 449.337C556.003 418.849 574.787 387.065 593.315 354.616C597.935 346.476 602.588 338.373 607.139 330.084L620.809 305.146L634.48 280.208L641.315 267.738L648.065 255.047C665.997 221.081 683.741 186.448 702.61 154.776C712.087 139.05 721.837 124.065 731.945 110.301C742.121 96.7587 752.706 84.6596 763.667 74.2624C774.644 64.0132 786.081 56.1691 797.689 49.953C809.348 44.2179 821.331 41.0358 833.314 41.8128C836.314 41.7758 839.297 42.5159 842.28 42.9229L846.746 44.1439L848.979 44.7729L851.195 45.6609C857.126 47.7329 862.905 51.3961 868.581 55.5401C871.376 57.9082 874.206 60.0542 876.899 62.9402C879.66 65.4933 882.285 68.6753 884.927 71.7833C886.274 73.2263 887.501 75.1504 888.78 76.8155C890.041 78.5915 891.354 80.1825 892.564 82.1065C894.984 85.9546 897.456 89.6547 899.774 93.7987C909.098 110.153 917.484 128.801 925.308 148.338C933.132 167.911 940.529 188.224 947.927 208.501C962.671 249.127 977.006 290.42 992.16 330.232C999.728 350.139 1007.48 369.749 1015.58 388.619C1019.64 398.055 1023.76 407.342 1027.97 416.444C1032.2 425.509 1036.67 433.945 1041.01 442.751C1059.08 476.2 1079.53 503.321 1101.23 524.227C1122.95 545.021 1145.89 559.895 1169.35 568.22C1192.78 576.582 1216.68 578.987 1240.37 575.583C1243.34 575.102 1246.31 574.806 1249.26 574.214L1258.1 571.92C1264 570.514 1269.88 568.59 1275.73 566.222C1287.42 561.597 1298.99 555.677 1310.41 548.499C1333.25 534.106 1355.46 515.198 1376.96 493.109C1398.56 471.427 1418.69 443.565 1440.04 420.403C1450.71 408.822 1461.67 398.388 1473.06 390.469C1484.43 382.514 1496.24 377.26 1508.17 375.669C1532.09 371.969 1555.97 380.886 1578.96 394.059C1602.04 407.231 1624.47 424.769 1647.32 439.347C1693.07 467.949 1738.61 498.844 1785.26 519.749C1796.92 525.041 1808.65 529.333 1820.41 533.366C1832.17 537.436 1843.95 541.062 1855.76 544.503C1879.37 551.237 1903.08 556.417 1926.83 560.08C1974.33 567.406 2022.06 568.331 2069.61 561.782C2022.07 568.627 1974.33 568.035 1926.81 561.005C1903.05 557.49 1879.32 552.458 1855.7 545.872C1843.88 542.542 1832.09 538.953 1820.31 534.957C1808.53 530.998 1796.77 526.78 1785.11 521.562C1738.37 500.805 1692.83 469.984 1647.06 441.456C1624.19 426.915 1601.74 409.451 1578.73 396.353C1555.78 383.254 1532.02 374.485 1508.29 378.185C1496.45 379.813 1484.75 385.03 1473.45 392.949C1462.15 400.83 1451.24 411.264 1440.62 422.808C1419.37 445.896 1399.22 473.869 1377.54 495.662C1356.01 517.899 1333.73 536.881 1310.82 551.385C1299.37 558.637 1287.74 564.594 1276 569.256C1270.14 571.661 1264.24 573.585 1258.31 574.991L1249.43 577.322C1246.46 577.914 1243.48 578.247 1240.49 578.728C1216.68 582.207 1192.68 579.839 1169.11 571.476C1145.53 563.151 1122.45 548.277 1100.6 527.409C1078.77 506.466 1058.16 479.197 1039.94 445.526C1035.56 436.683 1031.04 428.136 1026.8 419.071C1022.57 409.932 1018.41 400.645 1014.34 391.172C1006.19 372.228 998.416 352.618 990.813 332.638C975.643 292.714 961.325 251.347 946.598 210.721C931.785 170.39 917.262 128.912 898.768 96.4997C896.484 92.3926 894.047 88.7666 891.66 84.9555C890.484 83.0315 889.172 81.4775 887.944 79.7384C886.683 78.0734 885.473 76.1864 884.16 74.7804C881.57 71.7093 878.979 68.6013 876.268 66.0483C873.609 63.1992 870.831 61.0902 868.07 58.7592C862.479 54.6521 856.785 51.026 850.939 48.9909L848.757 48.103L846.558 47.4739L842.161 46.2529C839.212 45.8459 836.263 45.106 833.297 45.143C821.45 44.366 809.604 47.4739 798.047 53.135C786.524 59.2401 775.172 67.0102 764.263 77.1854C753.388 87.4715 742.854 99.4968 732.712 112.965C722.638 126.655 712.923 141.53 703.462 157.181C684.627 188.742 666.9 223.264 648.934 257.23L642.184 269.922L635.332 282.391L621.645 307.329L607.957 332.267C603.389 340.556 598.736 348.659 594.116 356.762C575.554 389.211 556.753 420.958 537.492 451.446C518.247 481.972 498.577 511.239 478.378 538.657C468.253 552.273 458.094 565.889 447.611 578.173L431.964 596.933C430.651 598.487 429.373 600.115 428.043 601.595L424.055 605.961L416.06 614.656C373.481 661.129 328.976 699.461 283.09 727.471L265.857 737.831C262.993 739.681 260.078 740.976 257.181 742.493L248.487 746.933L239.794 751.373C236.897 752.853 233.999 754.407 231.067 755.517L213.527 762.88C210.596 764.101 207.681 765.396 204.749 766.506L195.919 769.43L178.26 775.276C172.363 777.089 166.431 778.273 160.516 779.79L151.636 781.936L147.204 783.009L142.755 783.712C95.1813 792.222 47.3179 790.927 0 778.976Z" fill="#9CCB3C"/>
<path d="M0 802.249C47.71 815.458 96.0336 817.715 143.965 809.723C149.965 809.131 155.931 807.281 161.914 806.023C167.88 804.58 173.863 803.322 179.829 801.768L197.658 795.996L206.573 793.11C209.556 792.222 212.488 790.742 215.436 789.595L233.147 782.232L237.578 780.381C239.044 779.715 240.51 778.938 241.976 778.198L250.754 773.758C256.601 770.761 262.465 767.912 268.294 764.767L285.663 754.333L294.357 749.116C297.271 747.451 300.101 745.231 302.964 743.344L320.146 731.467L324.442 728.507C325.856 727.471 327.271 726.287 328.686 725.214L337.157 718.554C342.799 714.076 348.476 709.747 354.083 705.122C376.379 685.697 398.521 665.273 419.913 641.444C425.265 635.524 430.651 629.752 435.986 623.721L451.736 604.703C462.305 592.27 472.566 578.654 482.759 564.89C503.111 537.14 522.884 507.428 542.179 476.274C561.458 445.119 580.242 412.522 598.599 378.851C603.202 370.452 607.753 361.942 612.304 353.432C616.821 344.81 621.236 336.004 625.719 327.272C634.616 309.734 643.633 292.492 652.446 274.731C669.968 239.026 686.98 202.062 705.15 167.726C714.184 150.483 723.576 134.018 733.36 118.737C735.832 115 738.218 110.967 740.758 107.452L748.326 96.7215C750.883 93.2434 753.508 90.0244 756.099 86.6943C757.411 85.0663 758.672 83.3273 760.019 81.7733L764.025 77.2592L768.03 72.7452L770.042 70.4881L772.104 68.4531L780.354 60.387C783.133 57.8709 785.979 55.6879 788.809 53.3199C790.223 52.1728 791.621 50.9518 793.053 49.9158L797.383 47.0297C803.127 43.0706 808.939 39.4446 814.905 37.0765C817.854 35.6335 820.854 34.8935 823.837 33.8205L828.354 32.7845C829.854 32.4145 831.354 32.1185 832.871 32.0075C838.905 31.0085 844.973 31.4895 851.007 32.4885C857.041 33.7465 863.007 36.0776 868.871 39.4446C870.337 40.2586 871.768 41.3687 873.217 42.3307C874.666 43.2927 876.115 44.2917 877.513 45.5497L881.74 49.1388L885.848 53.3568L887.893 55.4658L889.871 57.9079L893.825 62.755L897.609 68.194L899.501 70.9321L901.308 73.9292C911.024 89.6915 919.427 108.784 927.166 128.838C934.905 148.966 941.893 170.242 948.899 191.48C962.859 234.031 976.188 277.506 990.251 319.798C1004.31 362.016 1018.97 403.567 1035.8 440.679C1052.57 477.754 1072.12 508.945 1093.39 532.922C1114.68 556.861 1137.51 574.214 1160.93 585.314C1184.36 596.341 1208.41 601.373 1232.4 599.967L1241.38 599.005C1244.38 598.635 1247.38 598.561 1250.36 597.747L1259.31 595.749L1263.79 594.749L1268.24 593.38C1280.12 589.68 1291.9 584.611 1303.53 578.099C1326.79 565.186 1349.41 547.167 1371.23 525.373C1376.69 519.934 1382.11 514.31 1387.44 508.353C1392.78 502.359 1398.03 496.069 1403.26 489.631C1413.71 476.755 1424.04 463.36 1434.64 450.928C1445.23 438.496 1456.08 426.952 1467.38 417.813C1478.69 408.673 1490.48 402.124 1502.5 399.423C1514.5 396.5 1526.65 397.018 1538.62 400.052C1550.6 403.086 1562.41 408.526 1574.05 415.149C1597.36 428.432 1619.98 446.488 1642.95 461.695C1666.01 476.459 1689.08 491.222 1712.24 505.208C1735.41 519.157 1758.71 532.07 1782.3 542.172C1794.08 547.315 1805.94 551.496 1817.84 555.159C1829.74 558.97 1841.65 562.3 1853.58 565.408C1877.46 571.55 1901.41 576.175 1925.41 579.283C1973.41 585.536 2021.58 585.721 2069.6 579.468C2021.6 586.017 1973.41 586.128 1925.38 580.208C1901.36 577.248 1877.39 572.771 1853.5 566.777C1841.55 563.743 1829.62 560.487 1817.72 556.75C1805.8 553.161 1793.92 549.054 1782.11 543.985C1758.49 533.957 1735.15 521.044 1711.97 507.169C1688.79 493.22 1665.72 478.494 1642.63 463.767C1619.6 448.597 1597 430.578 1573.75 417.406C1562.14 410.82 1550.36 405.455 1538.45 402.42C1526.53 399.46 1514.48 398.979 1502.58 401.902C1490.67 404.603 1478.98 411.116 1467.76 420.218C1456.53 429.32 1445.74 440.827 1435.19 453.259C1424.62 465.654 1414.32 479.086 1403.86 491.999C1398.62 498.474 1393.36 504.764 1388 510.795C1382.65 516.826 1377.21 522.45 1371.76 527.926C1349.89 549.831 1327.2 567.961 1303.85 580.985C1292.19 587.534 1280.36 592.677 1268.43 596.415L1263.97 597.784L1259.47 598.783L1250.47 600.781C1247.47 601.595 1244.45 601.706 1241.45 602.076L1232.41 603.038C1208.31 604.518 1184.14 599.523 1160.59 588.496C1137.03 577.396 1114.07 560.006 1092.64 535.956C1071.22 511.905 1051.51 480.529 1034.59 443.195C1017.64 405.861 1002.93 364.273 988.819 321.981C974.757 279.578 961.444 236.066 947.518 193.552C940.53 172.351 933.558 151.075 925.888 131.095C918.217 111.152 909.882 92.2445 900.319 76.6672L898.547 73.7071L896.689 71.0061L892.956 65.641L889.069 60.868L887.126 58.4629L885.115 56.3909L881.075 52.2468L876.916 48.6948C875.535 47.4368 874.121 46.4377 872.689 45.5127C871.257 44.5877 869.859 43.4777 868.411 42.6637C862.649 39.3336 856.752 37.0395 850.82 35.7815C844.871 34.7825 838.888 34.2645 832.922 35.2635C831.422 35.3745 829.939 35.6336 828.456 36.0036L823.99 37.0396C821.041 38.0756 818.059 38.8156 815.144 40.2216C809.246 42.5156 803.502 46.1417 797.775 50.0267L793.479 52.8759C792.064 53.9119 790.667 55.1329 789.269 56.2429C786.473 58.574 783.644 60.7199 780.883 63.236L772.684 71.2281L770.638 73.2262L768.644 75.4832L764.655 79.9602L760.667 84.4374C759.337 85.9544 758.076 87.6933 756.78 89.3214C754.207 92.6514 751.582 95.8335 749.042 99.2745L741.508 109.931C738.968 113.409 736.599 117.405 734.144 121.142C724.411 136.349 715.036 152.703 706.019 169.872C687.883 204.06 670.855 240.95 653.298 276.692C644.469 294.453 635.451 311.695 626.52 329.233C622.037 337.928 617.605 346.772 613.088 355.356C608.537 363.866 603.969 372.376 599.366 380.775C580.974 414.446 562.156 447.006 542.844 478.161C523.532 509.315 503.708 538.99 483.322 566.74C473.094 580.504 462.816 594.12 452.231 606.516L436.447 625.534C431.112 631.565 425.708 637.337 420.356 643.257C398.93 667.086 376.754 687.436 354.407 706.861C348.782 711.486 343.106 715.815 337.447 720.292L328.959 726.953C327.544 728.063 326.129 729.21 324.714 730.246L320.419 733.206L303.22 745.046C300.339 746.933 297.51 749.153 294.595 750.818L285.885 755.998L268.482 766.321C262.635 769.429 256.771 772.241 250.908 775.201L242.112 779.604C240.647 780.307 239.181 781.121 237.715 781.75L233.283 783.563L215.556 790.816C212.59 791.963 209.658 793.406 206.675 794.257L197.743 797.106L179.897 802.767C173.931 804.284 167.931 805.505 161.948 806.911C155.965 808.132 149.999 809.945 143.982 810.5C96.0336 818.307 47.6929 815.791 0 802.249Z" fill="#9CCB3C"/>
<path d="M0 825.559C48.1191 840.359 96.92 843.8 145.38 836.696C151.448 836.178 157.482 834.587 163.533 833.329L181.652 829.407L199.687 823.82C205.686 821.859 211.721 820.379 217.669 817.715C229.584 812.757 241.601 808.613 253.379 802.249L271.124 793.406L288.697 783.045C300.476 776.533 311.981 768.171 323.572 760.29C326.453 758.218 329.385 756.479 332.231 754.148L340.788 747.414L357.919 733.983C363.578 729.173 369.169 724.066 374.794 719.108L383.214 711.634L387.424 707.86L391.566 703.753L408.134 687.325C410.879 684.513 413.691 681.96 416.384 679L424.498 670.046L440.742 652.174C446.094 645.995 451.344 639.372 456.663 632.971C467.299 620.28 477.765 606.886 488.026 592.825C508.583 564.779 528.526 534.66 547.906 502.877C567.27 471.093 586.054 437.645 604.31 402.901C622.514 368.047 640.326 332.156 657.355 294.601C674.434 257.119 690.883 218.305 708.303 181.416C717.065 163.1 725.962 145.081 735.371 128.283C737.672 123.954 740.127 120.069 742.513 115.925L746.11 109.82C747.32 107.822 748.581 105.935 749.809 104.01C752.297 100.199 754.735 96.2404 757.258 92.5404L764.928 81.7732L766.854 79.0721L768.831 76.5931L772.803 71.672C775.445 68.3789 778.07 65.0489 780.831 62.2369L789.03 53.4678L797.468 45.7716C800.246 43.0335 803.161 41.1095 806.041 38.9264C808.939 36.8914 811.769 34.3754 814.735 32.7843C820.581 28.9363 826.581 26.3833 832.598 24.2003C838.649 22.3133 844.751 21.2032 850.871 21.2402C852.405 21.1662 853.922 21.4622 855.456 21.5362C856.99 21.6472 858.507 21.7582 860.024 22.2022L864.592 23.2382L869.126 24.9033C870.643 25.3843 872.126 26.1613 873.609 26.9753C875.092 27.7893 876.592 28.4554 878.058 29.4174C880.973 31.4524 883.922 33.3024 886.734 35.9664C889.615 38.2605 892.325 41.3685 895.086 44.2916C896.45 45.7716 897.746 47.6216 899.075 49.2496C900.388 50.9517 901.734 52.5797 902.961 54.5407C913.137 69.4519 921.831 88.5073 929.535 109.006C937.257 129.541 944.007 151.593 950.603 173.757C963.813 218.083 976.154 263.52 989.109 308.106C1002.03 352.691 1015.6 396.463 1031.04 437.09C1046.4 477.717 1065.13 512.09 1085.74 539.581L1089.59 544.762L1091.52 547.352L1093.51 549.683L1101.52 558.933L1105.53 563.558L1109.67 567.628L1117.95 575.731L1120.02 577.766L1122.15 579.505L1126.39 583.02L1134.88 590.013L1143.56 595.896L1147.89 598.857L1150.05 600.336L1152.25 601.557C1175.64 615.248 1199.82 622.426 1224.04 623.351C1248.27 624.239 1272.56 619.022 1296.22 607.589C1319.91 596.34 1342.99 579.394 1365.18 558.156C1376.29 547.574 1387.17 535.955 1397.69 522.82C1408.24 509.796 1418.55 495.884 1429.07 482.638C1439.58 469.391 1450.31 456.774 1461.52 446.414C1472.72 436.054 1484.46 428.136 1496.53 424.066C1508.6 420.255 1520.87 419.737 1533.01 422.216C1545.15 424.658 1557.13 429.801 1568.91 436.387C1592.5 449.522 1615.25 468.318 1638.4 484.192C1649.97 492.036 1661.68 499.214 1673.33 506.651C1684.99 514.014 1696.66 521.303 1708.37 528.333C1731.78 542.32 1755.35 555.196 1779.2 565.075C1791.11 570.033 1803.11 574.214 1815.16 577.507C1821.18 579.32 1827.2 580.911 1833.23 582.465C1839.25 584.13 1845.3 585.462 1851.33 586.868C1875.48 592.381 1899.71 596.488 1923.98 599.004C1972.51 604.148 2021.15 603.555 2069.67 597.635C2021.17 603.888 1972.51 604.776 1923.96 599.929C1899.69 597.524 1875.45 593.602 1851.28 588.237C1845.25 586.868 1839.2 585.536 1833.16 583.945C1827.13 582.428 1821.09 580.874 1815.08 579.098C1803.03 575.879 1790.99 571.772 1779.06 566.888C1755.16 557.083 1731.57 544.244 1708.13 530.294C1696.42 523.301 1684.73 516.049 1673.07 508.686C1661.41 501.249 1649.74 494.108 1638.11 486.301C1614.93 470.464 1592.17 451.742 1568.65 438.681C1556.91 432.169 1544.98 427.063 1532.92 424.658C1520.87 422.216 1508.7 422.734 1496.74 426.545C1484.79 430.578 1473.15 438.459 1462.02 448.782C1450.87 459.105 1440.2 471.722 1429.71 484.932C1419.21 498.178 1408.9 512.127 1398.33 525.188C1387.8 538.398 1376.86 550.09 1365.73 560.709C1343.48 582.058 1320.32 599.152 1296.54 610.475C1272.78 622.019 1248.39 627.31 1224.04 626.459C1199.7 625.571 1175.4 618.43 1151.88 604.703L1149.66 603.482L1147.48 602.002L1143.11 599.041L1134.39 593.121L1125.85 586.091L1121.57 582.576L1119.44 580.837L1117.36 578.802L1109.02 570.662L1104.86 566.592L1100.82 561.967L1092.74 552.68L1090.73 550.349L1088.79 547.759L1084.9 542.542C1064.14 514.902 1045.26 480.307 1029.74 439.384C1014.22 398.646 1000.58 354.764 987.626 310.104C974.671 265.444 962.347 219.97 949.188 175.718C942.609 153.591 935.893 131.613 928.257 111.263C920.62 90.9493 912.047 72.079 902.058 57.4638C900.848 55.5027 899.535 53.9117 898.24 52.2467C896.927 50.6187 895.666 48.8056 894.319 47.3626C891.609 44.5135 888.95 41.4055 886.121 39.1855C883.359 36.5584 880.461 34.7084 877.598 32.7104C876.166 31.7484 874.683 31.1194 873.217 30.3054C871.751 29.4913 870.285 28.7513 868.802 28.2703L864.354 26.6053L859.854 25.5693C858.354 25.1623 856.854 25.0513 855.337 24.9033C853.837 24.8293 852.32 24.5332 850.82 24.6072C844.786 24.5702 838.751 25.6432 832.786 27.4933C826.837 29.6023 820.888 32.1553 815.11 35.9294C812.178 37.5204 809.365 39.9995 806.485 42.0345C803.638 44.2175 800.723 46.1046 797.979 48.8057L789.61 56.4278L781.462 65.1229C778.718 67.898 776.093 71.191 773.485 74.4841L769.547 79.3682L767.57 81.8101L765.661 84.4742L758.025 95.1674C755.519 98.8305 753.081 102.789 750.61 106.564C749.383 108.488 748.138 110.338 746.928 112.336L743.349 118.404C740.979 122.511 738.525 126.396 736.241 130.688C726.866 147.375 717.985 165.32 709.241 183.599C691.855 220.377 675.372 259.154 658.275 296.636C641.196 334.191 623.349 370.082 605.111 404.936C586.821 439.68 568.003 473.128 548.588 504.912C529.174 536.658 509.196 566.777 488.589 594.823C478.31 608.884 467.827 622.278 457.174 634.969C451.856 641.333 446.589 647.956 441.219 654.135L424.958 672.007L416.827 680.924C414.117 683.921 411.305 686.474 408.56 689.249L391.975 705.677L387.833 709.784L383.623 713.521L375.186 720.995C369.544 725.916 363.953 731.023 358.277 735.833C335.47 754.037 312.459 771.279 288.953 784.747L271.345 794.997L253.567 803.729C241.754 810.019 229.737 814.089 217.806 819.01C211.84 821.637 205.806 823.117 199.789 825.004L181.738 830.48L163.601 834.291C157.55 835.512 151.516 837.066 145.448 837.547C96.9029 844.392 48.102 840.618 0 825.559Z" fill="#9CCB3C"/>
<path d="M0 848.833C48.5282 865.187 97.8404 869.849 146.846 863.596C195.868 857.676 244.499 839.287 291.868 811.647L300.749 806.467C303.714 804.765 306.68 803.063 309.595 800.954L327.152 789.003L335.93 783.009L344.589 776.238L361.907 762.696C364.805 760.55 367.635 757.886 370.464 755.407L378.987 747.858L387.509 740.31C390.339 737.757 393.22 735.426 395.981 732.54L412.72 715.927L421.089 707.602C423.85 704.679 426.56 701.571 429.305 698.574L445.702 680.443C447.066 678.926 448.447 677.483 449.793 675.855L453.799 670.971L461.81 661.166C467.145 654.58 472.532 648.179 477.816 641.445C483.083 634.6 488.333 627.717 493.497 620.576C514.276 592.234 534.406 561.671 553.872 529.296C573.355 496.92 592.173 462.658 610.309 426.804C628.446 390.951 645.985 353.654 662.69 314.618C679.411 275.657 695.247 234.882 712.002 195.846C720.337 176.236 728.962 157.218 737.962 139.014C746.877 120.624 756.439 103.715 766.343 87.8788L773.894 76.3346C776.485 72.7086 779.11 69.2305 781.718 65.6785C783.03 63.9394 784.309 62.0524 785.655 60.4614L789.712 55.6882L793.769 50.9152C795.115 49.2872 796.462 47.6962 797.877 46.3641L806.263 37.965C807.644 36.485 809.093 35.338 810.541 34.154L814.871 30.6018C817.752 28.1968 820.615 25.7548 823.581 23.9048C826.513 21.7587 829.513 20.2047 832.496 18.5027C838.513 15.5796 844.581 12.9526 850.751 11.9906L853.053 11.5095L855.371 11.3246C856.922 11.2136 858.456 10.9916 860.007 11.0286C863.092 11.2136 866.195 11.2136 869.263 12.0276C872.348 12.4346 875.399 13.7296 878.45 14.8026C879.967 15.4316 881.467 16.3196 882.967 17.0967L885.217 18.2807L887.433 19.8347C893.399 23.5717 899.024 29.3808 904.427 35.9299L908.382 41.221C909.728 42.923 910.904 45.1061 912.183 47.0301C914.74 50.8412 917.024 55.3923 919.376 59.7583C923.995 68.6755 928.154 78.6657 932.092 88.9519C939.916 109.709 946.529 132.354 952.768 155.331C965.262 201.286 976.666 248.535 988.512 295.193C1000.34 341.814 1012.63 388.028 1026.86 431.355C1028.64 436.757 1030.44 442.159 1032.27 447.488L1038.03 462.954L1040.91 470.687C1041.86 473.277 1042.82 475.867 1043.91 478.198L1050.22 492.628L1053.37 499.843L1056.76 506.54L1063.56 519.898L1065.27 523.228L1067.07 526.299L1070.69 532.404L1077.93 544.614C1097.86 575.473 1120.03 599.227 1143.25 616.025C1166.47 632.786 1190.72 642.999 1215.18 646.033C1227.4 647.402 1239.68 647.772 1251.9 645.922C1264.14 644.664 1276.31 641.223 1288.36 636.487C1312.48 627.088 1336.05 611.437 1358.67 590.976C1364.31 585.796 1369.92 580.394 1375.44 574.659C1380.98 568.998 1386.44 562.892 1391.77 556.417C1402.48 543.43 1412.82 529.148 1423.29 515.162C1433.75 501.249 1444.34 487.559 1455.44 475.978C1466.52 464.397 1478.16 454.962 1490.24 449.486C1502.33 444.047 1514.75 442.492 1527.04 444.342C1539.35 446.119 1551.5 450.929 1563.42 457.441C1587.3 470.465 1610.24 489.816 1633.56 506.356C1645.2 514.681 1657.03 521.896 1668.81 529.444C1680.59 536.918 1692.38 544.281 1704.23 551.311C1727.91 565.408 1751.74 578.248 1775.87 587.942C1787.94 592.826 1800.06 596.859 1812.26 599.856C1818.35 601.484 1824.45 603.038 1830.55 604.407C1836.66 605.887 1842.76 607.182 1848.88 608.366C1873.32 613.25 1897.83 616.728 1922.36 618.763C1971.43 622.796 2020.57 621.39 2069.61 615.766C2020.59 621.723 1971.43 623.388 1922.34 619.688C1897.8 617.838 1873.29 614.508 1848.83 609.772C1842.71 608.625 1836.6 607.367 1830.49 605.924C1824.38 604.629 1818.28 603.075 1812.18 601.484C1799.97 598.561 1787.82 594.565 1775.74 589.755C1751.57 580.172 1727.7 567.296 1704.01 553.272C1692.16 546.242 1680.37 538.916 1668.57 531.442C1656.79 523.931 1644.96 516.753 1633.29 508.428C1609.94 491.888 1586.99 472.611 1563.2 459.698C1551.32 453.26 1539.21 448.487 1527.01 446.748C1514.8 444.934 1502.48 446.525 1490.52 451.928C1478.55 457.367 1467.01 466.765 1456 478.309C1444.97 489.853 1434.42 503.507 1423.97 517.456C1413.52 531.442 1403.16 545.761 1392.44 558.822C1387.07 565.371 1381.6 571.477 1376.04 577.175C1370.5 582.984 1364.87 588.386 1359.21 593.603C1336.53 614.175 1312.87 629.938 1288.65 639.447C1276.54 644.22 1264.32 647.698 1252.03 648.993C1239.76 650.88 1227.44 650.547 1215.15 649.178C1190.57 646.218 1166.19 635.969 1142.82 619.17C1119.47 602.298 1097.14 578.433 1077.06 547.426L1069.75 535.142L1066.1 529L1064.28 525.929L1062.56 522.562L1055.69 509.131L1052.26 502.396L1049.07 495.144L1042.7 480.603C1041.61 478.235 1040.62 475.645 1039.67 473.055L1036.75 465.285L1030.94 449.671C1029.1 444.306 1027.29 438.94 1025.5 433.501C1011.18 390.026 998.842 343.738 986.995 297.08C975.148 250.348 963.779 203.136 951.336 157.255C945.132 134.315 938.552 111.818 930.831 91.2828C926.944 81.1076 922.836 71.2285 918.285 62.4224C915.984 58.1303 913.734 53.6162 911.228 49.9162C909.984 48.0291 908.825 45.8462 907.512 44.2182L903.626 39.038C898.325 32.6369 892.802 26.9018 886.956 23.2388L884.791 21.7217L882.575 20.5747C881.092 19.8347 879.626 18.9467 878.126 18.3177C875.126 17.2817 872.126 15.9866 869.092 15.5796C866.075 14.7656 863.024 14.8026 859.973 14.5806C858.456 14.5806 856.922 14.8026 855.405 14.8766L853.121 15.0617L850.837 15.5057C844.751 16.4307 838.751 19.0206 832.803 21.9067C829.854 23.6087 826.888 25.1257 823.99 27.2348C821.058 29.0478 818.212 31.4899 815.348 33.8579L811.053 37.373C809.621 38.557 808.189 39.667 806.808 41.147L798.473 49.4722C797.059 50.7672 795.729 52.3952 794.382 53.9862L790.343 58.7223L786.303 63.4584C784.956 65.0494 783.695 66.9364 782.382 68.6385C779.792 72.1535 777.184 75.6316 774.61 79.2207L767.093 90.6909C757.223 106.416 747.712 123.251 738.815 141.53C729.849 159.66 721.224 178.604 712.906 198.141C696.15 237.028 680.298 277.803 663.542 316.801C646.804 355.837 629.23 393.171 611.042 429.024C592.855 464.878 574.003 499.14 554.486 531.516C534.969 563.928 514.804 594.491 493.992 622.796C488.81 629.938 483.543 636.82 478.276 643.665C472.975 650.399 467.589 656.8 462.236 663.349L454.208 673.154L450.185 678.038C448.839 679.629 447.458 681.072 446.094 682.626L429.663 700.757C385.737 748.561 339.459 786.043 292.021 813.645C244.567 841.026 195.868 859.156 146.812 864.743C97.8404 870.441 48.5111 865.483 0 848.833Z" fill="#9CCB3C"/>
<path d="M0 872.106C97.9597 907.774 199.329 896.045 295.158 840.1C301.141 836.548 307.175 833.403 313.106 829.518L330.868 817.493L339.748 811.499C342.697 809.427 345.595 807.022 348.527 804.802L366.032 791.148L370.413 787.744L374.725 783.933L383.333 776.311C389.078 771.205 394.839 766.21 400.549 760.993L417.458 744.158C423.083 738.534 428.776 733.131 434.248 726.767C445.259 714.409 456.458 702.717 467.128 688.99L483.321 669.083C488.622 662.127 493.958 655.245 499.174 647.956C509.691 633.674 520.003 618.689 530.145 603.222C540.321 587.83 550.276 571.772 560.077 555.27C569.895 538.804 579.491 521.747 588.917 504.246C598.361 486.781 607.582 468.762 616.616 450.336C634.718 413.52 652.019 374.818 668.4 334.413C684.746 293.897 700.138 251.606 716.195 210.461C724.275 190 732.474 169.686 741.098 150.261C743.212 145.303 745.479 140.678 747.661 135.868C749.86 131.095 752.042 126.285 754.36 121.808L761.212 108.08L768.337 94.9822C777.951 77.8879 788.007 61.7557 798.848 48.3985L802.871 43.2554C804.2 41.4794 805.632 40.1473 807.013 38.5933L815.365 29.4912L823.99 21.684C825.439 20.426 826.854 19.0201 828.32 17.836L832.734 14.5059C838.666 10.2878 844.7 6.69884 850.854 4.40481C853.922 3.03578 857.024 2.40676 860.126 1.55575C861.677 1.18574 863.246 1.11171 864.797 0.889705L867.132 0.59375L869.484 0.63073C881.995 0.445727 894.558 6.10685 905.893 17.836C908.654 21.0181 911.501 23.9781 914.075 27.8632C916.785 31.3412 919.206 35.6333 921.694 39.7774C922.973 41.7754 924.046 44.2915 925.223 46.5115C926.365 48.8425 927.575 51.0256 928.649 53.4676C930.865 58.2777 932.927 63.3468 934.972 68.4899C943.018 89.2842 949.615 112.41 955.563 136.09C967.41 183.562 977.91 232.439 988.7 280.947C999.455 329.492 1010.53 377.704 1023.46 423.659C1029.95 446.562 1036.73 469.095 1044.63 489.779C1052.48 510.499 1061.19 529.665 1070.62 547.055C1089.54 581.688 1111.17 609.106 1134.16 628.938C1157.18 648.733 1181.45 661.535 1206.08 667.196C1255.36 678.926 1305.78 662.645 1351.89 623.462C1363.41 613.62 1374.73 602.482 1385.67 589.976C1396.58 577.248 1407.03 562.744 1417.48 548.165C1427.92 533.624 1438.39 519.046 1449.35 506.244C1460.29 493.442 1471.78 482.489 1483.83 475.459C1489.85 472.018 1495.99 469.206 1502.21 468.17L1506.86 467.097C1508.41 466.838 1509.98 466.838 1511.53 466.69L1516.2 466.357C1517.75 466.246 1519.32 466.542 1520.87 466.616C1533.33 467.43 1545.69 471.759 1557.78 478.012C1582 490.556 1605.16 510.573 1628.63 527.926C1640.34 536.769 1652.29 544.058 1664.19 551.717C1676.1 559.303 1688.02 566.74 1699.99 573.881C1723.92 588.089 1748.04 600.965 1772.46 610.474C1784.67 615.248 1796.94 619.17 1809.28 621.945C1821.62 624.831 1833.96 627.495 1846.34 629.567C1871.07 633.859 1895.87 636.634 1920.69 638.151C1970.32 641.037 2020 638.78 2069.58 633.452C2020 639.076 1970.32 641.629 1920.67 639.076C1895.85 637.744 1871.04 635.117 1846.29 630.973C1833.91 628.975 1821.54 626.422 1809.2 623.573C1796.84 620.872 1784.53 616.987 1772.31 612.288C1747.85 602.852 1723.7 589.976 1699.73 575.805C1687.75 568.701 1675.82 561.264 1663.9 553.716C1652 546.093 1640.04 538.804 1628.29 529.961C1604.79 512.608 1581.64 492.702 1557.52 480.269C1545.47 474.053 1533.2 469.798 1520.82 469.021C1519.27 468.947 1517.74 468.651 1516.19 468.762L1511.55 469.095C1510 469.243 1508.46 469.243 1506.91 469.502L1502.31 470.575C1496.14 471.611 1490.07 474.423 1484.11 477.827C1472.16 484.82 1460.77 495.699 1449.88 508.464C1438.97 521.229 1428.54 535.77 1418.09 550.349C1407.66 564.927 1397.17 579.505 1386.21 592.307C1375.2 604.924 1363.87 616.099 1352.31 626.015C1306.03 665.457 1255.41 681.886 1205.87 670.23C1181.12 664.606 1156.72 651.767 1133.55 631.898C1110.42 611.992 1088.62 584.426 1069.55 549.572C1060.05 532.07 1051.24 512.793 1043.31 491.888C1035.34 471.056 1028.5 448.375 1021.99 425.398C1009.02 379.295 997.87 331.009 987.097 282.427C976.325 233.845 965.859 184.968 954.063 137.644C948.149 114.038 941.62 91.0972 933.677 70.5619C931.666 65.4928 929.637 60.4607 927.456 55.7246C926.399 53.2826 925.206 51.1735 924.098 48.8795C922.938 46.6964 921.882 44.2174 920.637 42.2563C918.2 38.1863 915.814 33.9683 913.172 30.5643C910.649 26.7532 907.87 23.8301 905.16 20.7221C894.064 9.2149 881.757 3.5908 869.433 3.7758L867.132 3.73877L864.831 4.03478C863.297 4.25678 861.746 4.33083 860.229 4.66384C857.177 5.47785 854.092 6.10686 851.075 7.43888C844.99 9.65892 839.024 13.2109 833.161 17.355L828.78 20.648C827.331 21.832 825.916 23.2011 824.484 24.4221L815.928 32.1553L807.644 41.1834C806.28 42.7374 804.848 44.0695 803.536 45.8085L799.53 50.9146C788.757 64.1238 778.769 80.145 769.189 97.1283L762.098 110.116L755.263 123.769C752.945 128.246 750.78 133.019 748.581 137.755C746.4 142.528 744.133 147.116 742.036 152.074C733.428 171.425 725.246 191.665 717.15 212.089C701.093 253.16 685.684 295.414 669.286 335.967C652.855 376.446 635.502 415.111 617.366 451.964C608.315 470.427 599.059 488.447 589.599 505.911C580.156 523.412 570.525 540.506 560.69 556.935C550.872 573.474 540.884 589.495 530.69 604.924C520.514 620.391 510.185 635.376 499.651 649.658C494.418 656.91 489.083 663.792 483.765 670.785L467.537 690.692C456.833 704.419 445.634 716.111 434.589 728.469C429.1 734.833 423.407 740.198 417.765 745.86L400.822 762.658C395.095 767.875 389.316 772.87 383.572 777.976L374.947 785.598L370.634 789.409L366.254 792.813L348.714 806.43C345.782 808.65 342.885 811.092 339.919 813.127L331.021 819.121L313.226 831.109C307.277 834.957 301.226 838.102 295.243 841.617C199.363 897.266 97.9086 908.366 0 872.106Z" fill="#9CCB3C"/>
</g>
</svg>
